<svg width="20" height="21" viewBox="0 0 20 21" fill="none" xmlns="http://www.w3.org/2000/svg">
<path d="M9.99999 12.1665C9.30555 12.1665 8.71527 11.9234 8.22916 11.4373C7.74305 10.9512 7.49999 10.3609 7.49999 9.6665V4.6665C7.49999 3.97206 7.74305 3.38178 8.22916 2.89567C8.71527 2.40956 9.30555 2.1665 9.99999 2.1665C10.6944 2.1665 11.2847 2.40956 11.7708 2.89567C12.2569 3.38178 12.5 3.97206 12.5 4.6665V9.6665C12.5 10.3609 12.2569 10.9512 11.7708 11.4373C11.2847 11.9234 10.6944 12.1665 9.99999 12.1665ZM9.16666 17.1665V15.4373C7.88888 15.2568 6.79527 14.7151 5.88583 13.8123C4.97638 12.9096 4.42416 11.8123 4.22916 10.5207C4.20138 10.2846 4.26388 10.0832 4.41666 9.9165C4.56944 9.74984 4.76388 9.6665 4.99999 9.6665C5.2361 9.6665 5.43416 9.7465 5.59416 9.9065C5.75416 10.0665 5.86166 10.2643 5.91666 10.4998C6.1111 11.4721 6.59388 12.2707 7.36499 12.8957C8.1361 13.5207 9.01444 13.8332 9.99999 13.8332C11 13.8332 11.8819 13.5173 12.6458 12.8857C13.4097 12.254 13.8889 11.4587 14.0833 10.4998C14.1389 10.2637 14.2467 10.0659 14.4067 9.9065C14.5667 9.74706 14.7644 9.66706 15 9.6665C15.2355 9.66595 15.43 9.74928 15.5833 9.9165C15.7367 10.0837 15.7992 10.2851 15.7708 10.5207C15.5764 11.7846 15.0278 12.8748 14.125 13.7915C13.2222 14.7082 12.125 15.2568 10.8333 15.4373V17.1665C10.8333 17.4026 10.7533 17.6007 10.5933 17.7607C10.4333 17.9207 10.2355 18.0004 9.99999 17.9998C9.76444 17.9993 9.56666 17.9193 9.40666 17.7598C9.24666 17.6004 9.16666 17.4026 9.16666 17.1665ZM9.99999 10.4998C10.2361 10.4998 10.4342 10.4198 10.5942 10.2598C10.7542 10.0998 10.8339 9.90206 10.8333 9.6665V4.6665C10.8333 4.43039 10.7533 4.23262 10.5933 4.07317C10.4333 3.91373 10.2355 3.83373 9.99999 3.83317C9.76444 3.83262 9.56666 3.91262 9.40666 4.07317C9.24666 4.23373 9.16666 4.4315 9.16666 4.6665V9.6665C9.16666 9.90262 9.24666 10.1007 9.40666 10.2607C9.56666 10.4207 9.76444 10.5004 9.99999 10.4998Z" fill="#444746"/>
</svg>
