<svg width="14" height="14" viewBox="0 0 14 14" fill="none" xmlns="http://www.w3.org/2000/svg">
<path d="M8.5 13.8333V12.2708C9.69445 11.9514 10.6597 11.3056 11.3958 10.3333C12.1319 9.34722 12.5 8.23611 12.5 7C12.5 5.76389 12.125 4.66667 11.375 3.70833C10.6389 2.73611 9.68056 2.06944 8.5 1.70833V0.145833C10.1111 0.493055 11.4306 1.30555 12.4583 2.58333C13.4861 3.86111 14 5.32639 14 6.97917C14 8.63194 13.4861 10.1042 12.4583 11.3958C11.4444 12.6736 10.125 13.4861 8.5 13.8333ZM1.19209e-07 8.97917V4.97917H3L7 0.979166V12.9792L3 8.97917H1.19209e-07ZM8.5 10.125V3.83333C9.125 4.11111 9.61111 4.53472 9.95833 5.10417C10.3194 5.67361 10.5 6.29861 10.5 6.97917C10.5 7.65972 10.3194 8.28472 9.95833 8.85417C9.61111 9.40972 9.125 9.83333 8.5 10.125ZM5.5 4.60417L3.625 6.47917H1.5V7.47917H3.625L5.5 9.35417V4.60417Z" fill="#444746"/>
</svg>
