<svg width="20" height="20" viewBox="0 0 20 20" fill="none" xmlns="http://www.w3.org/2000/svg">
<g clip-path="url(#clip0_10872_1792)">
<path d="M14.6042 12.4792L13.5 11.375C13.6528 11.0833 13.7708 10.7847 13.8542 10.4792C13.9514 10.1597 14 9.83333 14 9.5H15.5C15.5 10.0278 15.4236 10.5486 15.2708 11.0625C15.1181 11.5625 14.8958 12.0347 14.6042 12.4792ZM12.375 10.25L11 8.875V4.5C11 4.22222 10.9028 3.98611 10.7083 3.79167C10.5139 3.59722 10.2778 3.5 10 3.5C9.72222 3.5 9.48611 3.59722 9.29167 3.79167C9.09722 3.98611 9 4.22222 9 4.5V6.875L7.5 5.375V4.5C7.5 3.80556 7.74306 3.21528 8.22917 2.72917C8.71528 2.24305 9.30556 2 10 2C10.6944 2 11.2847 2.24305 11.7708 2.72917C12.2569 3.21528 12.5 3.80556 12.5 4.5V9.5C12.5 9.625 12.4861 9.75 12.4583 9.875C12.4444 10 12.4167 10.125 12.375 10.25ZM9.25 17V14.9375C7.875 14.7708 6.73611 14.1736 5.83333 13.1458C4.94444 12.1042 4.5 10.8889 4.5 9.5H6C6 10.6111 6.38889 11.5556 7.16667 12.3333C7.94444 13.1111 8.88889 13.5 10 13.5C10.4722 13.5 10.9167 13.4097 11.3333 13.2292C11.7639 13.0486 12.1597 12.8056 12.5208 12.5L13.6042 13.5833C13.2014 13.9306 12.7569 14.2292 12.2708 14.4792C11.7847 14.7153 11.2778 14.8681 10.75 14.9375V17H9.25ZM16 18.125L1.875 3.97917L2.9375 2.91667L17.0625 17.0625L16 18.125Z" fill="#1F1F1F"/>
</g>
<defs>
<clipPath id="clip0_10872_1792">
<rect width="20" height="20" fill="white"/>
</clipPath>
</defs>
</svg>
