<svg width="17" height="17" viewBox="0 0 17 17" fill="none" xmlns="http://www.w3.org/2000/svg">
<path d="M15 16.125L12.7708 13.8958C12.4653 14.0903 12.0972 14.2778 11.6667 14.4583C11.25 14.625 10.8611 14.75 10.5 14.8333V13.2917C10.6667 13.2222 10.8611 13.1458 11.0833 13.0625C11.3194 12.9653 11.5139 12.875 11.6667 12.7917L9 10.125V14.0208L5 10.0208H2V6.02083H4.875L0.875 2L1.9375 0.937499L16.0625 15.0625L15 16.125ZM14.875 11.7708L13.7917 10.6875C14.0139 10.2847 14.1875 9.86111 14.3125 9.41667C14.4375 8.95833 14.5 8.49306 14.5 8.02083C14.5 6.78472 14.125 5.6875 13.375 4.72917C12.6389 3.75694 11.6806 3.09028 10.5 2.72917V1.1875C12.125 1.50694 13.4444 2.3125 14.4583 3.60417C15.4861 4.89583 16 6.36806 16 8.02083C16 8.6875 15.9028 9.34028 15.7083 9.97917C15.5139 10.6042 15.2361 11.2014 14.875 11.7708ZM12.2917 9.1875L10.5 7.39583V4.85417C11.125 5.13194 11.6111 5.5625 11.9583 6.14583C12.3194 6.71528 12.5 7.34028 12.5 8.02083C12.5 8.21528 12.4861 8.40972 12.4583 8.60417C12.4306 8.79861 12.375 8.99306 12.2917 9.1875ZM9 5.89583L7.0625 3.95833L9 2.02083V5.89583Z" fill="#444746"/>
</svg>
